<?xml version="1.0" encoding="UTF-8" standalone="no"?>
<svg width="120px" height="120px" viewBox="0 0 120 120" version="1.1" xmlns="http://www.w3.org/2000/svg" xmlns:xlink="http://www.w3.org/1999/xlink" xmlns:sketch="http://www.bohemiancoding.com/sketch/ns">
    <!-- Generator: Sketch 3.2.2 (9983) - http://www.bohemiancoding.com/sketch -->
    <title>Dino</title>
    <desc>Created with Sketch.</desc>
    <defs></defs>
    <g id="Page-1" stroke="none" stroke-width="1" fill="none" fill-rule="evenodd" sketch:type="MSPage">
        <g id="Dino" sketch:type="MSLayerGroup" fill="#000000">
            <path d="M60,120 C93.137085,120 120,93.137085 120,60 C120,26.862915 93.137085,0 60,0 C26.862915,0 0,26.862915 0,60 C0,93.137085 26.862915,120 60,120 Z M16.4782609,48.1347826 L28.1104348,45.2069565 C24.7869565,47.66 17.586087,53.1991304 14.5,57.1556522 L14.7373913,57.7095652 C17.9026087,56.4434783 22.1756522,54.94 25.8156522,53.5947826 C23.9956522,54.6234783 19.0104348,58.4217391 16.4782609,62.6947826 L16.7156522,63.3278261 C20.0391304,61.7452174 26.2904348,58.8173913 26.2904348,58.8965217 C22.9669565,61.9034783 20.1973913,65.3852174 18.693913,68.7878261 L18.9313043,69.4208696 L28.1895652,64.6730435 C26.2113043,66.4930435 23.6,69.3417391 22.2547826,73.4565217 L22.5713043,74.0104348 L28.506087,69.8956522 C27.3191304,71.2408696 25.8947826,73.6147826 25.3408696,75.5930435 L25.6573913,76.226087 C27.0817391,75.513913 29.1391304,74.4852174 31.8295652,73.6147826 C30.1678261,74.7226087 28.6643478,75.6721739 27.793913,76.78 L27.9521739,77.333913 C28.7434783,77.4130435 30.6426087,77.4921739 30.6426087,77.4921739 L26.5278261,79.7078261 C26.5278261,79.7078261 30.88,85.5634783 37.7643478,89.5991304 C45.44,94.1886957 53.4321739,94.9008696 57.3886957,94.9008696 C59.6834783,94.9008696 61.82,94.6634783 62.373913,94.5843478 C62.373913,94.2678261 61.9782609,92.5269565 61.5826087,91.5773913 C62.0573913,90.8652174 62.9278261,87.9373913 63.2443478,86.1965217 C64.5104348,79.866087 64.9852174,77.4921739 70.8408696,74.406087 C72.1069565,73.7730435 74.3226087,72.2695652 76.5382609,72.2695652 C79.3869565,72.2695652 83.3434783,73.693913 85.7965217,74.1686957 C87.4582609,74.4852174 88.8826087,74.7226087 89.9904348,74.7226087 C91.8895652,74.7226087 95.846087,72.1113043 97.5078261,70.766087 C97.666087,70.8452174 98.4573913,71.0034783 99.3278261,71.0034783 C99.8026087,71.0034783 100.356522,71.0034783 100.831304,70.766087 C102.255652,70.1330435 105.5,62.1408696 105.5,61.0330435 C105.5,60.1626087 105.025217,59.0547826 104.787826,56.5226087 C104.629565,55.0191304 104.471304,51.6165217 104.233913,50.9043478 C103.046957,47.66 96.0043478,46.2356522 88.0121739,42.8330435 C83.2643478,40.7756522 80.8904348,38.0852174 80.8904348,38.0852174 C80.8904348,38.0852174 81.1278261,37.293913 81.1278261,36.2652174 C81.1278261,34.1286957 79.2286957,28.3521739 72.5817391,28.3521739 C69.5747826,28.3521739 66.8052174,29.2226087 66.013913,29.46 C64.5104348,29.46 56.2808696,25.8991304 52.3243478,25.8991304 C42.6704348,25.8991304 33.966087,32.7043478 27.24,38.006087 C22.0965217,42.0417391 18.2191304,45.6817391 16.3991304,47.5017391 L16.4782609,48.1347826 Z" id="Oval-1" sketch:type="MSShapeGroup"></path>
        </g>
        <text id="-on-" fill="#161614" sketch:type="MSTextLayer" font-family="Fira Sans" font-size="27" font-style="italic" font-weight="526" sketch:alignment="middle">
            <tspan x="128.31" y="69" fill="#FFFFFF">-on-</tspan>
        </text>
    </g>
</svg>