<?xml version="1.0" encoding="UTF-8" standalone="no"?>
<svg width="120px" height="120px" viewBox="0 0 120 120" version="1.1" xmlns="http://www.w3.org/2000/svg" xmlns:xlink="http://www.w3.org/1999/xlink" xmlns:sketch="http://www.bohemiancoding.com/sketch/ns">
    <title>GitHub-Mark</title>
    <defs></defs>
    <g id="Page-1" stroke="none" stroke-width="1" fill="none" fill-rule="evenodd" sketch:type="MSPage">
        <g id="GitHub-Mark" sketch:type="MSLayerGroup" fill="#161614">
            <path d="M60.1080992,0.445 C27.0366942,0.445 0.219173554,27.481 0.219173554,60.833 C0.219173554,87.514 17.3791736,110.15 41.174876,118.135 C44.1679339,118.694 45.2667769,116.825 45.2667769,115.23 C45.2667769,113.79 45.2112397,109.033 45.1854545,103.987 C28.5242975,107.64 25.008595,96.862 25.008595,96.862 C22.2842975,89.882 18.3590083,88.026 18.3590083,88.026 C12.9252893,84.278 18.768595,84.355 18.768595,84.355 C24.7824793,84.781 27.9490909,90.578 27.9490909,90.578 C33.2905785,99.81 41.9593388,97.141 45.3768595,95.598 C45.9143802,91.695 47.4664463,89.031 49.1791736,87.523 C35.8770248,85.996 21.8935537,80.818 21.8935537,57.679 C21.8935537,51.086 24.2330579,45.699 28.0641322,41.47 C27.442314,39.949 25.3923967,33.807 28.6442975,25.489 C28.6442975,25.489 33.6733884,23.866 45.1180165,31.679 C49.8952066,30.341 55.0185124,29.67 60.1080992,29.647 C65.197686,29.67 70.3249587,30.341 75.1110744,31.679 C86.5418182,23.866 91.5639669,25.489 91.5639669,25.489 C94.8238017,33.807 92.7728926,39.949 92.1510744,41.47 C95.9910744,45.699 98.3147107,51.086 98.3147107,57.679 C98.3147107,80.873 84.3044628,85.98 70.968595,87.475 C73.1166942,89.349 75.0307438,93.024 75.0307438,98.658 C75.0307438,106.738 74.9613223,113.241 74.9613223,115.23 C74.9613223,116.837 76.0393388,118.72 79.0750413,118.127 C102.857851,110.133 119.996033,87.505 119.996033,60.833 C119.996033,27.481 93.1824793,0.445 60.1080992,0.445" id="Fill-4" sketch:type="MSShapeGroup"></path>
            <path d="M22.9021488,87.149 C22.7702479,87.449 22.3021488,87.539 21.8757025,87.333 C21.4413223,87.136 21.1973554,86.727 21.3381818,86.426 C21.4671074,86.117 21.9361983,86.031 22.3695868,86.238 C22.8049587,86.435 23.0528926,86.848 22.9021488,87.149" id="Fill-5" sketch:type="MSShapeGroup"></path>
            <path d="M25.3279339,89.877 C25.042314,90.144 24.4839669,90.02 24.105124,89.598 C23.7133884,89.177 23.64,88.614 23.9295868,88.343 C24.2241322,88.076 24.7656198,88.201 25.1583471,88.622 C25.5500826,89.048 25.6264463,89.607 25.3279339,89.877" id="Fill-6" sketch:type="MSShapeGroup"></path>
            <path d="M27.6892562,93.355 C27.322314,93.612 26.722314,93.371 26.351405,92.834 C25.9844628,92.297 25.9844628,91.653 26.3593388,91.395 C26.7312397,91.137 27.322314,91.369 27.6981818,91.902 C28.0641322,92.448 28.0641322,93.092 27.6892562,93.355" id="Fill-7" sketch:type="MSShapeGroup"></path>
            <path d="M30.9242975,96.715 C30.5960331,97.08 29.8968595,96.982 29.385124,96.484 C28.8614876,95.997 28.7157025,95.306 29.0449587,94.941 C29.3771901,94.575 30.0803306,94.678 30.5960331,95.172 C31.1157025,95.658 31.2743802,96.354 30.9242975,96.715" id="Fill-8" sketch:type="MSShapeGroup"></path>
            <path d="M35.3871074,98.666 C35.242314,99.139 34.5689256,99.354 33.8905785,99.153 C33.2132231,98.946 32.7699174,98.392 32.9067769,97.914 C33.0476033,97.438 33.7239669,97.214 34.4072727,97.429 C35.0836364,97.635 35.5279339,98.185 35.3871074,98.666" id="Fill-9" sketch:type="MSShapeGroup"></path>
            <path d="M40.2882645,99.028 C40.305124,99.526 39.7299174,99.939 39.0178512,99.948 C38.3018182,99.964 37.7226446,99.561 37.7147107,99.071 C37.7147107,98.568 38.2770248,98.159 38.9930579,98.147 C39.705124,98.133 40.2882645,98.533 40.2882645,99.028" id="Fill-10" sketch:type="MSShapeGroup"></path>
            <path d="M44.8492562,98.245 C44.9345455,98.731 44.4396694,99.23 43.732562,99.363 C43.0373554,99.491 42.393719,99.191 42.3054545,98.709 C42.2191736,98.211 42.7229752,97.712 43.4171901,97.583 C44.1252893,97.459 44.7590083,97.751 44.8492562,98.245" id="Fill-11" sketch:type="MSShapeGroup"></path>
        </g>
    </g>
</svg>
